<svg xmlns="http://www.w3.org/2000/svg" viewBox="0 0 100 100" width="100" height="100">
  <!-- Cyberpunk B mark with neon accents -->
  <defs>
    <linearGradient id="neon" x1="0%" y1="0%" x2="100%" y2="100%">
      <stop offset="0%" style="stop-color:#00f5ff"/>
      <stop offset="100%" style="stop-color:#00d4aa"/>
    </linearGradient>
  </defs>
  
  <!-- Outer glow ring -->
  <circle cx="50" cy="50" r="42" fill="none" stroke="#00f5ff" stroke-width="3" opacity="0.25"/>
  <circle cx="50" cy="50" r="42" fill="none" stroke="#00f5ff" stroke-width="1.5"/>
  
  <!-- Stylized B -->
  <path d="M32 22 L32 78 L58 78 Q72 78 72 62 Q72 52 62 50 Q72 48 72 38 Q72 22 58 22 Z M40 30 L58 30 Q65 30 65 38 Q65 46 58 46 L40 46 Z M40 54 L58 54 Q65 54 65 62 Q65 70 58 70 L40 70 Z" 
        fill="none" stroke="url(#neon)" stroke-width="6" stroke-linejoin="round"/>
  
  <!-- Accent dots -->
  <circle cx="50" cy="38" r="2.5" fill="#00f5ff"/>
  <circle cx="50" cy="62" r="2.5" fill="#00d4aa"/>
</svg>